<?xml version="1.0" standalone="no"?>
<!DOCTYPE svg PUBLIC "-//W3C//DTD SVG 20010904//EN"
 "http://www.w3.org/TR/2001/REC-SVG-20010904/DTD/svg10.dtd">
<svg version="1.0" xmlns="http://www.w3.org/2000/svg"
 width="215.000000pt" height="215.000000pt" viewBox="0 0 215.000000 215.000000"
 preserveAspectRatio="xMidYMid meet">
<metadata>
Created by potrace 1.11, written by Peter Selinger 2001-2013
</metadata>
<g transform="translate(0.000000,215.000000) scale(0.100000,-0.100000)"
fill="#000000" stroke="none">
<path d="M0 1075 l0 -1075 1075 0 1075 0 0 1075 0 1075 -1075 0 -1075 0 0
-1075z m1389 536 c30 -58 67 -113 88 -131 l37 -33 -12 -80 c-8 -57 -18 -87
-33 -103 -12 -13 -18 -28 -13 -35 5 -8 3 -11 -7 -7 -8 3 -19 0 -25 -6 -13 -14
19 -57 49 -69 22 -8 22 -43 0 -56 -15 -9 -15 -10 -2 -11 20 0 64 41 51 49 -5
3 -13 17 -16 31 -4 14 -10 33 -13 44 -3 12 -1 16 6 12 15 -9 25 37 17 82 -3
21 -1 51 3 67 8 24 9 15 10 -46 1 -42 10 -110 20 -152 34 -131 37 -187 12
-236 -35 -67 -171 -263 -171 -245 0 9 -9 18 -20 21 -20 5 -20 7 7 42 14 20 44
55 65 78 43 48 51 69 13 33 -28 -27 -28 -27 -16 17 12 43 -3 55 -61 47 -84
-12 -146 25 -194 115 -19 37 -21 48 -11 65 l12 21 3 -21 c3 -24 28 -34 82 -33
36 1 34 3 -12 13 -38 9 -35 22 7 30 23 5 35 13 35 23 0 9 8 25 18 36 17 20 16
20 -55 13 -63 -6 -73 -5 -73 8 0 9 -3 16 -7 16 -5 0 -28 18 -52 41 -38 35 -47
39 -75 33 -49 -11 -61 -10 -58 4 1 8 -2 11 -7 8 -5 -4 -12 -2 -16 4 -9 15 -57
12 -79 -5 -14 -11 -20 -28 -20 -57 -1 -24 -5 -46 -11 -50 -6 -5 -5 -12 3 -20
6 -6 12 -20 12 -30 0 -10 10 -20 25 -24 33 -8 32 -20 -2 -32 l-28 -10 28 -1
c35 -1 67 15 67 34 0 17 9 19 29 6 11 -7 10 -17 -8 -55 -23 -46 -52 -69 -157
-121 -51 -25 -74 -44 -98 -80 -12 -17 -16 -18 -32 -5 -10 8 7 -15 38 -52 72
-85 86 -112 89 -176 2 -43 -1 -57 -19 -75 l-22 -21 0 31 c0 57 -30 126 -100
229 -90 134 -106 164 -89 174 12 8 22 8 73 -5 30 -8 30 -12 11 53 -14 49 -13
72 4 72 14 1 14 2 -1 11 -24 14 -23 46 2 54 11 3 20 10 20 15 0 5 8 16 17 25
15 15 15 18 1 26 -44 25 26 128 104 151 24 7 58 23 77 35 38 26 67 29 106 11
23 -10 29 -8 56 18 17 16 38 41 47 57 11 19 24 27 43 27 29 0 59 23 59 45 0 7
9 42 20 78 16 53 24 65 39 62 10 -2 24 1 32 6 8 5 17 9 20 9 3 0 29 -45 58
-99z m-752 -353 c-3 -7 -5 -2 -5 12 0 14 2 19 5 13 2 -7 2 -19 0 -25z m300
-770 c-3 -8 -6 -5 -6 6 -1 11 2 17 5 13 3 -3 4 -12 1 -19z m283 -25 c-11 -17
-11 -17 -6 0 3 10 6 24 7 30 0 9 2 9 5 0 3 -7 0 -20 -6 -30z"/>
<path d="M1213 1193 c9 -2 23 -2 30 0 6 3 -1 5 -18 5 -16 0 -22 -2 -12 -5z"/>
<path d="M1520 1000 c0 -23 22 -27 39 -6 9 11 8 15 -5 20 -26 10 -34 7 -34
-14z"/>
</g>
</svg>
